<mxfile host="Electron" agent="Mozilla/5.0 (Macintosh; Intel Mac OS X 10_15_7) AppleWebKit/537.36 (KHTML, like Gecko) draw.io/24.7.8 Chrome/128.0.6613.36 Electron/32.0.1 Safari/537.36" version="24.7.8">
  <diagram name="Страница — 1" id="kX3AGAllcmJoz38sUThV">
    <mxGraphModel dx="2103" dy="2302" grid="1" gridSize="10" guides="1" tooltips="1" connect="1" arrows="1" fold="1" page="1" pageScale="1" pageWidth="827" pageHeight="1169" math="0" shadow="0">
      <root>
        <mxCell id="0" />
        <mxCell id="1" parent="0" />
        <mxCell id="IfGrJ6KYX5G2Y0XuaCo3-62" style="edgeStyle=orthogonalEdgeStyle;rounded=0;orthogonalLoop=1;jettySize=auto;html=1;exitX=0.5;exitY=0;exitDx=0;exitDy=0;entryX=1;entryY=0.5;entryDx=0;entryDy=0;endArrow=none;endFill=0;" edge="1" parent="1" source="IfGrJ6KYX5G2Y0XuaCo3-1" target="IfGrJ6KYX5G2Y0XuaCo3-54">
          <mxGeometry relative="1" as="geometry" />
        </mxCell>
        <mxCell id="IfGrJ6KYX5G2Y0XuaCo3-64" style="edgeStyle=orthogonalEdgeStyle;rounded=0;orthogonalLoop=1;jettySize=auto;html=1;exitX=0.5;exitY=0;exitDx=0;exitDy=0;entryX=1;entryY=0.5;entryDx=0;entryDy=0;endArrow=none;endFill=0;" edge="1" parent="1" source="IfGrJ6KYX5G2Y0XuaCo3-1" target="IfGrJ6KYX5G2Y0XuaCo3-55">
          <mxGeometry relative="1" as="geometry" />
        </mxCell>
        <mxCell id="IfGrJ6KYX5G2Y0XuaCo3-65" style="edgeStyle=orthogonalEdgeStyle;rounded=0;orthogonalLoop=1;jettySize=auto;html=1;exitX=0.5;exitY=0;exitDx=0;exitDy=0;entryX=1;entryY=0.5;entryDx=0;entryDy=0;endArrow=none;endFill=0;" edge="1" parent="1" source="IfGrJ6KYX5G2Y0XuaCo3-1" target="IfGrJ6KYX5G2Y0XuaCo3-56">
          <mxGeometry relative="1" as="geometry" />
        </mxCell>
        <mxCell id="IfGrJ6KYX5G2Y0XuaCo3-66" style="edgeStyle=orthogonalEdgeStyle;rounded=0;orthogonalLoop=1;jettySize=auto;html=1;exitX=0.5;exitY=0;exitDx=0;exitDy=0;entryX=1;entryY=0.5;entryDx=0;entryDy=0;endArrow=none;endFill=0;" edge="1" parent="1" source="IfGrJ6KYX5G2Y0XuaCo3-1" target="IfGrJ6KYX5G2Y0XuaCo3-57">
          <mxGeometry relative="1" as="geometry" />
        </mxCell>
        <mxCell id="IfGrJ6KYX5G2Y0XuaCo3-67" style="edgeStyle=orthogonalEdgeStyle;rounded=0;orthogonalLoop=1;jettySize=auto;html=1;exitX=0.5;exitY=0;exitDx=0;exitDy=0;entryX=1;entryY=0.5;entryDx=0;entryDy=0;endArrow=none;endFill=0;" edge="1" parent="1" source="IfGrJ6KYX5G2Y0XuaCo3-1" target="IfGrJ6KYX5G2Y0XuaCo3-58">
          <mxGeometry relative="1" as="geometry" />
        </mxCell>
        <mxCell id="IfGrJ6KYX5G2Y0XuaCo3-68" style="edgeStyle=orthogonalEdgeStyle;rounded=0;orthogonalLoop=1;jettySize=auto;html=1;exitX=0.5;exitY=0;exitDx=0;exitDy=0;entryX=1;entryY=0.5;entryDx=0;entryDy=0;endArrow=none;endFill=0;" edge="1" parent="1" source="IfGrJ6KYX5G2Y0XuaCo3-1" target="IfGrJ6KYX5G2Y0XuaCo3-60">
          <mxGeometry relative="1" as="geometry" />
        </mxCell>
        <mxCell id="IfGrJ6KYX5G2Y0XuaCo3-69" style="edgeStyle=orthogonalEdgeStyle;rounded=0;orthogonalLoop=1;jettySize=auto;html=1;exitX=0.5;exitY=0;exitDx=0;exitDy=0;entryX=1;entryY=0.5;entryDx=0;entryDy=0;endArrow=none;endFill=0;" edge="1" parent="1" source="IfGrJ6KYX5G2Y0XuaCo3-1" target="IfGrJ6KYX5G2Y0XuaCo3-61">
          <mxGeometry relative="1" as="geometry" />
        </mxCell>
        <mxCell id="IfGrJ6KYX5G2Y0XuaCo3-1" value="Клиент" style="rounded=0;whiteSpace=wrap;html=1;fillColor=none;" vertex="1" parent="1">
          <mxGeometry x="40" y="200" width="120" height="40" as="geometry" />
        </mxCell>
        <mxCell id="IfGrJ6KYX5G2Y0XuaCo3-12" style="edgeStyle=orthogonalEdgeStyle;rounded=0;orthogonalLoop=1;jettySize=auto;html=1;exitX=0.5;exitY=1;exitDx=0;exitDy=0;entryX=0.5;entryY=0;entryDx=0;entryDy=0;endArrow=none;endFill=0;" edge="1" parent="1" source="IfGrJ6KYX5G2Y0XuaCo3-2" target="IfGrJ6KYX5G2Y0XuaCo3-7">
          <mxGeometry relative="1" as="geometry" />
        </mxCell>
        <mxCell id="IfGrJ6KYX5G2Y0XuaCo3-29" style="edgeStyle=orthogonalEdgeStyle;rounded=0;orthogonalLoop=1;jettySize=auto;html=1;exitX=0.5;exitY=0;exitDx=0;exitDy=0;entryX=1;entryY=0.5;entryDx=0;entryDy=0;endArrow=none;endFill=0;" edge="1" parent="1" source="IfGrJ6KYX5G2Y0XuaCo3-2" target="IfGrJ6KYX5G2Y0XuaCo3-26">
          <mxGeometry relative="1" as="geometry">
            <mxPoint x="420.1428571428571" y="-170" as="targetPoint" />
          </mxGeometry>
        </mxCell>
        <mxCell id="IfGrJ6KYX5G2Y0XuaCo3-30" style="edgeStyle=orthogonalEdgeStyle;rounded=0;orthogonalLoop=1;jettySize=auto;html=1;exitX=0.5;exitY=0;exitDx=0;exitDy=0;entryX=1;entryY=0.5;entryDx=0;entryDy=0;endArrow=none;endFill=0;" edge="1" parent="1" source="IfGrJ6KYX5G2Y0XuaCo3-2" target="IfGrJ6KYX5G2Y0XuaCo3-28">
          <mxGeometry relative="1" as="geometry" />
        </mxCell>
        <mxCell id="IfGrJ6KYX5G2Y0XuaCo3-31" style="edgeStyle=orthogonalEdgeStyle;rounded=0;orthogonalLoop=1;jettySize=auto;html=1;exitX=0.5;exitY=0;exitDx=0;exitDy=0;entryX=1;entryY=0.5;entryDx=0;entryDy=0;endArrow=none;endFill=0;" edge="1" parent="1" source="IfGrJ6KYX5G2Y0XuaCo3-2" target="IfGrJ6KYX5G2Y0XuaCo3-23">
          <mxGeometry relative="1" as="geometry" />
        </mxCell>
        <mxCell id="IfGrJ6KYX5G2Y0XuaCo3-32" style="edgeStyle=orthogonalEdgeStyle;rounded=0;orthogonalLoop=1;jettySize=auto;html=1;exitX=0.5;exitY=0;exitDx=0;exitDy=0;entryX=1;entryY=0.5;entryDx=0;entryDy=0;endArrow=none;endFill=0;" edge="1" parent="1" source="IfGrJ6KYX5G2Y0XuaCo3-2" target="IfGrJ6KYX5G2Y0XuaCo3-22">
          <mxGeometry relative="1" as="geometry" />
        </mxCell>
        <mxCell id="IfGrJ6KYX5G2Y0XuaCo3-34" style="edgeStyle=orthogonalEdgeStyle;rounded=0;orthogonalLoop=1;jettySize=auto;html=1;entryX=1;entryY=0.5;entryDx=0;entryDy=0;endArrow=none;endFill=0;" edge="1" parent="1" source="IfGrJ6KYX5G2Y0XuaCo3-2" target="IfGrJ6KYX5G2Y0XuaCo3-27">
          <mxGeometry relative="1" as="geometry" />
        </mxCell>
        <mxCell id="IfGrJ6KYX5G2Y0XuaCo3-35" style="edgeStyle=orthogonalEdgeStyle;rounded=0;orthogonalLoop=1;jettySize=auto;html=1;entryX=1;entryY=0.5;entryDx=0;entryDy=0;endArrow=none;endFill=0;" edge="1" parent="1" source="IfGrJ6KYX5G2Y0XuaCo3-2" target="IfGrJ6KYX5G2Y0XuaCo3-24">
          <mxGeometry relative="1" as="geometry" />
        </mxCell>
        <mxCell id="IfGrJ6KYX5G2Y0XuaCo3-36" style="edgeStyle=orthogonalEdgeStyle;rounded=0;orthogonalLoop=1;jettySize=auto;html=1;entryX=1;entryY=0.5;entryDx=0;entryDy=0;endArrow=none;endFill=0;" edge="1" parent="1" source="IfGrJ6KYX5G2Y0XuaCo3-2" target="IfGrJ6KYX5G2Y0XuaCo3-25">
          <mxGeometry relative="1" as="geometry" />
        </mxCell>
        <mxCell id="IfGrJ6KYX5G2Y0XuaCo3-2" value="Заказ" style="rounded=0;whiteSpace=wrap;html=1;fillColor=none;" vertex="1" parent="1">
          <mxGeometry x="360" y="200" width="120" height="40" as="geometry" />
        </mxCell>
        <mxCell id="IfGrJ6KYX5G2Y0XuaCo3-47" style="edgeStyle=orthogonalEdgeStyle;rounded=0;orthogonalLoop=1;jettySize=auto;html=1;exitX=0.5;exitY=0;exitDx=0;exitDy=0;entryX=1;entryY=0.5;entryDx=0;entryDy=0;endArrow=none;endFill=0;" edge="1" parent="1" source="IfGrJ6KYX5G2Y0XuaCo3-3" target="IfGrJ6KYX5G2Y0XuaCo3-41">
          <mxGeometry relative="1" as="geometry" />
        </mxCell>
        <mxCell id="IfGrJ6KYX5G2Y0XuaCo3-48" style="edgeStyle=orthogonalEdgeStyle;rounded=0;orthogonalLoop=1;jettySize=auto;html=1;exitX=0.5;exitY=0;exitDx=0;exitDy=0;entryX=1;entryY=0.5;entryDx=0;entryDy=0;endArrow=none;endFill=0;" edge="1" parent="1" source="IfGrJ6KYX5G2Y0XuaCo3-3" target="IfGrJ6KYX5G2Y0XuaCo3-42">
          <mxGeometry relative="1" as="geometry" />
        </mxCell>
        <mxCell id="IfGrJ6KYX5G2Y0XuaCo3-49" style="edgeStyle=orthogonalEdgeStyle;rounded=0;orthogonalLoop=1;jettySize=auto;html=1;exitX=0.5;exitY=0;exitDx=0;exitDy=0;entryX=1;entryY=0.5;entryDx=0;entryDy=0;endArrow=none;endFill=0;" edge="1" parent="1" source="IfGrJ6KYX5G2Y0XuaCo3-3" target="IfGrJ6KYX5G2Y0XuaCo3-43">
          <mxGeometry relative="1" as="geometry" />
        </mxCell>
        <mxCell id="IfGrJ6KYX5G2Y0XuaCo3-50" style="edgeStyle=orthogonalEdgeStyle;rounded=0;orthogonalLoop=1;jettySize=auto;html=1;exitX=0.5;exitY=0;exitDx=0;exitDy=0;entryX=1;entryY=0.5;entryDx=0;entryDy=0;endArrow=none;endFill=0;" edge="1" parent="1" source="IfGrJ6KYX5G2Y0XuaCo3-3" target="IfGrJ6KYX5G2Y0XuaCo3-44">
          <mxGeometry relative="1" as="geometry" />
        </mxCell>
        <mxCell id="IfGrJ6KYX5G2Y0XuaCo3-51" style="edgeStyle=orthogonalEdgeStyle;rounded=0;orthogonalLoop=1;jettySize=auto;html=1;exitX=0.5;exitY=0;exitDx=0;exitDy=0;entryX=1;entryY=0.5;entryDx=0;entryDy=0;endArrow=none;endFill=0;" edge="1" parent="1" source="IfGrJ6KYX5G2Y0XuaCo3-3" target="IfGrJ6KYX5G2Y0XuaCo3-46">
          <mxGeometry relative="1" as="geometry" />
        </mxCell>
        <mxCell id="IfGrJ6KYX5G2Y0XuaCo3-3" value="Магазин" style="rounded=0;whiteSpace=wrap;html=1;fillColor=none;" vertex="1" parent="1">
          <mxGeometry x="680" y="200" width="120" height="40" as="geometry" />
        </mxCell>
        <mxCell id="IfGrJ6KYX5G2Y0XuaCo3-4" style="edgeStyle=orthogonalEdgeStyle;rounded=0;orthogonalLoop=1;jettySize=auto;html=1;exitX=0.5;exitY=1;exitDx=0;exitDy=0;" edge="1" parent="1" source="IfGrJ6KYX5G2Y0XuaCo3-3" target="IfGrJ6KYX5G2Y0XuaCo3-3">
          <mxGeometry relative="1" as="geometry" />
        </mxCell>
        <mxCell id="IfGrJ6KYX5G2Y0XuaCo3-76" style="edgeStyle=orthogonalEdgeStyle;rounded=0;orthogonalLoop=1;jettySize=auto;html=1;exitX=0.5;exitY=1;exitDx=0;exitDy=0;entryX=0;entryY=0.5;entryDx=0;entryDy=0;endArrow=none;endFill=0;" edge="1" parent="1" source="IfGrJ6KYX5G2Y0XuaCo3-5" target="IfGrJ6KYX5G2Y0XuaCo3-70">
          <mxGeometry relative="1" as="geometry" />
        </mxCell>
        <mxCell id="IfGrJ6KYX5G2Y0XuaCo3-5" value="Товар" style="rounded=0;whiteSpace=wrap;html=1;fillColor=none;" vertex="1" parent="1">
          <mxGeometry x="360" y="360" width="120" height="40" as="geometry" />
        </mxCell>
        <mxCell id="IfGrJ6KYX5G2Y0XuaCo3-90" style="edgeStyle=orthogonalEdgeStyle;rounded=0;orthogonalLoop=1;jettySize=auto;html=1;exitX=0.5;exitY=1;exitDx=0;exitDy=0;entryX=0;entryY=0.5;entryDx=0;entryDy=0;endArrow=none;endFill=0;" edge="1" parent="1" source="IfGrJ6KYX5G2Y0XuaCo3-6" target="IfGrJ6KYX5G2Y0XuaCo3-82">
          <mxGeometry relative="1" as="geometry" />
        </mxCell>
        <mxCell id="IfGrJ6KYX5G2Y0XuaCo3-91" style="edgeStyle=orthogonalEdgeStyle;rounded=0;orthogonalLoop=1;jettySize=auto;html=1;exitX=0.5;exitY=1;exitDx=0;exitDy=0;entryX=0;entryY=0.5;entryDx=0;entryDy=0;endArrow=none;endFill=0;" edge="1" parent="1" source="IfGrJ6KYX5G2Y0XuaCo3-6" target="IfGrJ6KYX5G2Y0XuaCo3-85">
          <mxGeometry relative="1" as="geometry" />
        </mxCell>
        <mxCell id="IfGrJ6KYX5G2Y0XuaCo3-92" style="edgeStyle=orthogonalEdgeStyle;rounded=0;orthogonalLoop=1;jettySize=auto;html=1;exitX=0.5;exitY=1;exitDx=0;exitDy=0;entryX=0;entryY=0.5;entryDx=0;entryDy=0;endArrow=none;endFill=0;" edge="1" parent="1" source="IfGrJ6KYX5G2Y0XuaCo3-6" target="IfGrJ6KYX5G2Y0XuaCo3-86">
          <mxGeometry relative="1" as="geometry" />
        </mxCell>
        <mxCell id="IfGrJ6KYX5G2Y0XuaCo3-93" style="edgeStyle=orthogonalEdgeStyle;rounded=0;orthogonalLoop=1;jettySize=auto;html=1;exitX=0.5;exitY=1;exitDx=0;exitDy=0;entryX=0;entryY=0.5;entryDx=0;entryDy=0;endArrow=none;endFill=0;" edge="1" parent="1" source="IfGrJ6KYX5G2Y0XuaCo3-6" target="IfGrJ6KYX5G2Y0XuaCo3-87">
          <mxGeometry relative="1" as="geometry" />
        </mxCell>
        <mxCell id="IfGrJ6KYX5G2Y0XuaCo3-94" style="edgeStyle=orthogonalEdgeStyle;rounded=0;orthogonalLoop=1;jettySize=auto;html=1;exitX=0.5;exitY=1;exitDx=0;exitDy=0;entryX=0;entryY=0.5;entryDx=0;entryDy=0;endArrow=none;endFill=0;" edge="1" parent="1" source="IfGrJ6KYX5G2Y0XuaCo3-6" target="IfGrJ6KYX5G2Y0XuaCo3-89">
          <mxGeometry relative="1" as="geometry" />
        </mxCell>
        <mxCell id="IfGrJ6KYX5G2Y0XuaCo3-95" style="edgeStyle=orthogonalEdgeStyle;rounded=0;orthogonalLoop=1;jettySize=auto;html=1;exitX=0.5;exitY=1;exitDx=0;exitDy=0;entryX=0;entryY=0.5;entryDx=0;entryDy=0;endArrow=none;endFill=0;" edge="1" parent="1" source="IfGrJ6KYX5G2Y0XuaCo3-6" target="IfGrJ6KYX5G2Y0XuaCo3-88">
          <mxGeometry relative="1" as="geometry" />
        </mxCell>
        <mxCell id="IfGrJ6KYX5G2Y0XuaCo3-6" value="Производитель" style="rounded=0;whiteSpace=wrap;html=1;fillColor=none;" vertex="1" parent="1">
          <mxGeometry x="40" y="360" width="120" height="40" as="geometry" />
        </mxCell>
        <mxCell id="IfGrJ6KYX5G2Y0XuaCo3-11" style="edgeStyle=orthogonalEdgeStyle;rounded=0;orthogonalLoop=1;jettySize=auto;html=1;exitX=0.5;exitY=1;exitDx=0;exitDy=0;entryX=0.5;entryY=0;entryDx=0;entryDy=0;endArrow=ERmany;endFill=0;" edge="1" parent="1" source="IfGrJ6KYX5G2Y0XuaCo3-7" target="IfGrJ6KYX5G2Y0XuaCo3-5">
          <mxGeometry relative="1" as="geometry" />
        </mxCell>
        <mxCell id="IfGrJ6KYX5G2Y0XuaCo3-7" value="содержать" style="rhombus;whiteSpace=wrap;html=1;fillColor=none;" vertex="1" parent="1">
          <mxGeometry x="360" y="280" width="120" height="40" as="geometry" />
        </mxCell>
        <mxCell id="IfGrJ6KYX5G2Y0XuaCo3-15" style="edgeStyle=orthogonalEdgeStyle;rounded=0;orthogonalLoop=1;jettySize=auto;html=1;exitX=1;exitY=0.5;exitDx=0;exitDy=0;entryX=0;entryY=0.5;entryDx=0;entryDy=0;endArrow=none;endFill=0;" edge="1" parent="1" source="IfGrJ6KYX5G2Y0XuaCo3-8" target="IfGrJ6KYX5G2Y0XuaCo3-5">
          <mxGeometry relative="1" as="geometry" />
        </mxCell>
        <mxCell id="IfGrJ6KYX5G2Y0XuaCo3-16" style="edgeStyle=orthogonalEdgeStyle;rounded=0;orthogonalLoop=1;jettySize=auto;html=1;exitX=0;exitY=0.5;exitDx=0;exitDy=0;entryX=1;entryY=0.5;entryDx=0;entryDy=0;endArrow=ERmany;endFill=0;" edge="1" parent="1" source="IfGrJ6KYX5G2Y0XuaCo3-8" target="IfGrJ6KYX5G2Y0XuaCo3-6">
          <mxGeometry relative="1" as="geometry" />
        </mxCell>
        <mxCell id="IfGrJ6KYX5G2Y0XuaCo3-8" value="создать" style="rhombus;whiteSpace=wrap;html=1;fillColor=none;" vertex="1" parent="1">
          <mxGeometry x="200" y="360" width="120" height="40" as="geometry" />
        </mxCell>
        <mxCell id="IfGrJ6KYX5G2Y0XuaCo3-13" style="edgeStyle=orthogonalEdgeStyle;rounded=0;orthogonalLoop=1;jettySize=auto;html=1;exitX=0;exitY=0.5;exitDx=0;exitDy=0;entryX=1;entryY=0.5;entryDx=0;entryDy=0;endArrow=ERmany;endFill=0;" edge="1" parent="1" source="IfGrJ6KYX5G2Y0XuaCo3-9" target="IfGrJ6KYX5G2Y0XuaCo3-1">
          <mxGeometry relative="1" as="geometry" />
        </mxCell>
        <mxCell id="IfGrJ6KYX5G2Y0XuaCo3-14" style="edgeStyle=orthogonalEdgeStyle;rounded=0;orthogonalLoop=1;jettySize=auto;html=1;exitX=1;exitY=0.5;exitDx=0;exitDy=0;entryX=0;entryY=0.5;entryDx=0;entryDy=0;endArrow=none;endFill=0;" edge="1" parent="1" source="IfGrJ6KYX5G2Y0XuaCo3-9" target="IfGrJ6KYX5G2Y0XuaCo3-2">
          <mxGeometry relative="1" as="geometry" />
        </mxCell>
        <mxCell id="IfGrJ6KYX5G2Y0XuaCo3-9" value="оформлять" style="rhombus;whiteSpace=wrap;html=1;fillColor=none;" vertex="1" parent="1">
          <mxGeometry x="200" y="200" width="120" height="40" as="geometry" />
        </mxCell>
        <mxCell id="IfGrJ6KYX5G2Y0XuaCo3-17" style="edgeStyle=orthogonalEdgeStyle;rounded=0;orthogonalLoop=1;jettySize=auto;html=1;exitX=0;exitY=0.5;exitDx=0;exitDy=0;entryX=1;entryY=0.5;entryDx=0;entryDy=0;endArrow=none;endFill=0;" edge="1" parent="1" source="IfGrJ6KYX5G2Y0XuaCo3-10" target="IfGrJ6KYX5G2Y0XuaCo3-2">
          <mxGeometry relative="1" as="geometry" />
        </mxCell>
        <mxCell id="IfGrJ6KYX5G2Y0XuaCo3-18" style="edgeStyle=orthogonalEdgeStyle;rounded=0;orthogonalLoop=1;jettySize=auto;html=1;exitX=1;exitY=0.5;exitDx=0;exitDy=0;entryX=0;entryY=0.5;entryDx=0;entryDy=0;endArrow=ERmany;endFill=0;" edge="1" parent="1" source="IfGrJ6KYX5G2Y0XuaCo3-10" target="IfGrJ6KYX5G2Y0XuaCo3-3">
          <mxGeometry relative="1" as="geometry" />
        </mxCell>
        <mxCell id="IfGrJ6KYX5G2Y0XuaCo3-10" value="оформлять" style="rhombus;whiteSpace=wrap;html=1;fillColor=none;" vertex="1" parent="1">
          <mxGeometry x="520" y="200" width="120" height="40" as="geometry" />
        </mxCell>
        <mxCell id="IfGrJ6KYX5G2Y0XuaCo3-20" value="" style="rounded=0;whiteSpace=wrap;html=1;fillColor=none;" vertex="1" parent="1">
          <mxGeometry x="365" y="205" width="110" height="30" as="geometry" />
        </mxCell>
        <mxCell id="IfGrJ6KYX5G2Y0XuaCo3-21" value="" style="rounded=0;whiteSpace=wrap;html=1;fillColor=none;" vertex="1" parent="1">
          <mxGeometry x="365" y="365" width="110" height="30" as="geometry" />
        </mxCell>
        <mxCell id="IfGrJ6KYX5G2Y0XuaCo3-22" value="Индекс" style="ellipse;whiteSpace=wrap;html=1;fillColor=none;" vertex="1" parent="1">
          <mxGeometry x="280" y="140" width="120" height="40" as="geometry" />
        </mxCell>
        <mxCell id="IfGrJ6KYX5G2Y0XuaCo3-23" value="Количество продуктов" style="ellipse;whiteSpace=wrap;html=1;fillColor=none;" vertex="1" parent="1">
          <mxGeometry x="280" y="-60" width="120" height="40" as="geometry" />
        </mxCell>
        <mxCell id="IfGrJ6KYX5G2Y0XuaCo3-24" value="Индекс клиента" style="ellipse;whiteSpace=wrap;html=1;fillColor=none;" vertex="1" parent="1">
          <mxGeometry x="280" y="40" width="120" height="40" as="geometry" />
        </mxCell>
        <mxCell id="IfGrJ6KYX5G2Y0XuaCo3-25" value="Индекс магазина" style="ellipse;whiteSpace=wrap;html=1;fillColor=none;" vertex="1" parent="1">
          <mxGeometry x="280" y="-10" width="120" height="40" as="geometry" />
        </mxCell>
        <mxCell id="IfGrJ6KYX5G2Y0XuaCo3-26" value="Дата последнего изменения" style="ellipse;whiteSpace=wrap;html=1;fillColor=none;fontSize=11;" vertex="1" parent="1">
          <mxGeometry x="280" y="-160" width="120" height="40" as="geometry" />
        </mxCell>
        <mxCell id="IfGrJ6KYX5G2Y0XuaCo3-27" value="Индекс продукта" style="ellipse;whiteSpace=wrap;html=1;fillColor=none;" vertex="1" parent="1">
          <mxGeometry x="280" y="90" width="120" height="40" as="geometry" />
        </mxCell>
        <mxCell id="IfGrJ6KYX5G2Y0XuaCo3-28" value="Дата создания" style="ellipse;whiteSpace=wrap;html=1;fillColor=none;" vertex="1" parent="1">
          <mxGeometry x="280" y="-110" width="120" height="40" as="geometry" />
        </mxCell>
        <mxCell id="IfGrJ6KYX5G2Y0XuaCo3-37" value="PK" style="text;html=1;align=center;verticalAlign=middle;whiteSpace=wrap;rounded=0;" vertex="1" parent="1">
          <mxGeometry x="220" y="145" width="60" height="30" as="geometry" />
        </mxCell>
        <mxCell id="IfGrJ6KYX5G2Y0XuaCo3-38" value="FK" style="text;html=1;align=center;verticalAlign=middle;whiteSpace=wrap;rounded=0;" vertex="1" parent="1">
          <mxGeometry x="220" y="95" width="60" height="30" as="geometry" />
        </mxCell>
        <mxCell id="IfGrJ6KYX5G2Y0XuaCo3-39" value="FK" style="text;html=1;align=center;verticalAlign=middle;whiteSpace=wrap;rounded=0;" vertex="1" parent="1">
          <mxGeometry x="220" y="45" width="60" height="30" as="geometry" />
        </mxCell>
        <mxCell id="IfGrJ6KYX5G2Y0XuaCo3-40" value="FK" style="text;html=1;align=center;verticalAlign=middle;whiteSpace=wrap;rounded=0;" vertex="1" parent="1">
          <mxGeometry x="220" y="-5" width="60" height="30" as="geometry" />
        </mxCell>
        <mxCell id="IfGrJ6KYX5G2Y0XuaCo3-41" value="Индекс" style="ellipse;whiteSpace=wrap;html=1;fillColor=none;" vertex="1" parent="1">
          <mxGeometry x="600" y="140" width="120" height="40" as="geometry" />
        </mxCell>
        <mxCell id="IfGrJ6KYX5G2Y0XuaCo3-42" value="Название" style="ellipse;whiteSpace=wrap;html=1;fillColor=none;" vertex="1" parent="1">
          <mxGeometry x="600" y="90" width="120" height="40" as="geometry" />
        </mxCell>
        <mxCell id="IfGrJ6KYX5G2Y0XuaCo3-43" value="Электронная почта" style="ellipse;whiteSpace=wrap;html=1;fillColor=none;" vertex="1" parent="1">
          <mxGeometry x="600" y="40" width="120" height="40" as="geometry" />
        </mxCell>
        <mxCell id="IfGrJ6KYX5G2Y0XuaCo3-44" value="URL" style="ellipse;whiteSpace=wrap;html=1;fillColor=none;" vertex="1" parent="1">
          <mxGeometry x="600" y="-10" width="120" height="40" as="geometry" />
        </mxCell>
        <mxCell id="IfGrJ6KYX5G2Y0XuaCo3-52" style="edgeStyle=orthogonalEdgeStyle;rounded=0;orthogonalLoop=1;jettySize=auto;html=1;exitX=1;exitY=0.5;exitDx=0;exitDy=0;endArrow=none;endFill=0;" edge="1" parent="1" source="IfGrJ6KYX5G2Y0XuaCo3-45">
          <mxGeometry relative="1" as="geometry">
            <mxPoint x="740" y="200" as="targetPoint" />
          </mxGeometry>
        </mxCell>
        <mxCell id="IfGrJ6KYX5G2Y0XuaCo3-45" value="Дата последнего изменения" style="ellipse;whiteSpace=wrap;html=1;fillColor=none;fontSize=11;" vertex="1" parent="1">
          <mxGeometry x="600" y="-110" width="120" height="40" as="geometry" />
        </mxCell>
        <mxCell id="IfGrJ6KYX5G2Y0XuaCo3-46" value="Дата создания" style="ellipse;whiteSpace=wrap;html=1;fillColor=none;" vertex="1" parent="1">
          <mxGeometry x="600" y="-60" width="120" height="40" as="geometry" />
        </mxCell>
        <mxCell id="IfGrJ6KYX5G2Y0XuaCo3-53" value="PK" style="text;html=1;align=center;verticalAlign=middle;whiteSpace=wrap;rounded=0;" vertex="1" parent="1">
          <mxGeometry x="540" y="145" width="60" height="30" as="geometry" />
        </mxCell>
        <mxCell id="IfGrJ6KYX5G2Y0XuaCo3-54" value="Индекс" style="ellipse;whiteSpace=wrap;html=1;fillColor=none;" vertex="1" parent="1">
          <mxGeometry x="-40" y="140" width="120" height="40" as="geometry" />
        </mxCell>
        <mxCell id="IfGrJ6KYX5G2Y0XuaCo3-55" value="ФИО" style="ellipse;whiteSpace=wrap;html=1;fillColor=none;" vertex="1" parent="1">
          <mxGeometry x="-40" y="90" width="120" height="40" as="geometry" />
        </mxCell>
        <mxCell id="IfGrJ6KYX5G2Y0XuaCo3-56" value="Номер телефона" style="ellipse;whiteSpace=wrap;html=1;fillColor=none;" vertex="1" parent="1">
          <mxGeometry x="-40" y="40" width="120" height="40" as="geometry" />
        </mxCell>
        <mxCell id="IfGrJ6KYX5G2Y0XuaCo3-57" value="Электронная поста" style="ellipse;whiteSpace=wrap;html=1;fillColor=none;" vertex="1" parent="1">
          <mxGeometry x="-40" y="-10" width="120" height="40" as="geometry" />
        </mxCell>
        <mxCell id="IfGrJ6KYX5G2Y0XuaCo3-58" value="Дата рождения" style="ellipse;whiteSpace=wrap;html=1;fillColor=none;" vertex="1" parent="1">
          <mxGeometry x="-40" y="-60" width="120" height="40" as="geometry" />
        </mxCell>
        <mxCell id="IfGrJ6KYX5G2Y0XuaCo3-60" value="Дата создания" style="ellipse;whiteSpace=wrap;html=1;fillColor=none;" vertex="1" parent="1">
          <mxGeometry x="-40" y="-110" width="120" height="40" as="geometry" />
        </mxCell>
        <mxCell id="IfGrJ6KYX5G2Y0XuaCo3-61" value="Дата последнего изменения" style="ellipse;whiteSpace=wrap;html=1;fillColor=none;fontSize=11;" vertex="1" parent="1">
          <mxGeometry x="-40" y="-160" width="120" height="40" as="geometry" />
        </mxCell>
        <mxCell id="IfGrJ6KYX5G2Y0XuaCo3-63" value="PK" style="text;html=1;align=center;verticalAlign=middle;whiteSpace=wrap;rounded=0;" vertex="1" parent="1">
          <mxGeometry x="-100" y="145" width="60" height="30" as="geometry" />
        </mxCell>
        <mxCell id="IfGrJ6KYX5G2Y0XuaCo3-70" value="Индекс" style="ellipse;whiteSpace=wrap;html=1;fillColor=none;fontSize=11;" vertex="1" parent="1">
          <mxGeometry x="440" y="420" width="120" height="40" as="geometry" />
        </mxCell>
        <mxCell id="IfGrJ6KYX5G2Y0XuaCo3-78" style="edgeStyle=orthogonalEdgeStyle;rounded=0;orthogonalLoop=1;jettySize=auto;html=1;exitX=0;exitY=0.5;exitDx=0;exitDy=0;endArrow=none;endFill=0;" edge="1" parent="1" source="IfGrJ6KYX5G2Y0XuaCo3-71">
          <mxGeometry relative="1" as="geometry">
            <mxPoint x="420" y="400" as="targetPoint" />
          </mxGeometry>
        </mxCell>
        <mxCell id="IfGrJ6KYX5G2Y0XuaCo3-71" value="Название" style="ellipse;whiteSpace=wrap;html=1;fillColor=none;fontSize=11;" vertex="1" parent="1">
          <mxGeometry x="440" y="520" width="120" height="40" as="geometry" />
        </mxCell>
        <mxCell id="IfGrJ6KYX5G2Y0XuaCo3-79" style="edgeStyle=orthogonalEdgeStyle;rounded=0;orthogonalLoop=1;jettySize=auto;html=1;exitX=0;exitY=0.5;exitDx=0;exitDy=0;entryX=0.5;entryY=1;entryDx=0;entryDy=0;endArrow=none;endFill=0;" edge="1" parent="1" source="IfGrJ6KYX5G2Y0XuaCo3-72" target="IfGrJ6KYX5G2Y0XuaCo3-5">
          <mxGeometry relative="1" as="geometry" />
        </mxCell>
        <mxCell id="IfGrJ6KYX5G2Y0XuaCo3-72" value="Цена" style="ellipse;whiteSpace=wrap;html=1;fillColor=none;fontSize=11;" vertex="1" parent="1">
          <mxGeometry x="440" y="570" width="120" height="40" as="geometry" />
        </mxCell>
        <mxCell id="IfGrJ6KYX5G2Y0XuaCo3-77" style="edgeStyle=orthogonalEdgeStyle;rounded=0;orthogonalLoop=1;jettySize=auto;html=1;exitX=0;exitY=0.5;exitDx=0;exitDy=0;entryX=0.5;entryY=1;entryDx=0;entryDy=0;endArrow=none;endFill=0;" edge="1" parent="1" source="IfGrJ6KYX5G2Y0XuaCo3-73" target="IfGrJ6KYX5G2Y0XuaCo3-5">
          <mxGeometry relative="1" as="geometry" />
        </mxCell>
        <mxCell id="IfGrJ6KYX5G2Y0XuaCo3-73" value="Индекс производителя" style="ellipse;whiteSpace=wrap;html=1;fillColor=none;fontSize=11;" vertex="1" parent="1">
          <mxGeometry x="440" y="470" width="120" height="40" as="geometry" />
        </mxCell>
        <mxCell id="IfGrJ6KYX5G2Y0XuaCo3-81" style="edgeStyle=orthogonalEdgeStyle;rounded=0;orthogonalLoop=1;jettySize=auto;html=1;exitX=0;exitY=0.5;exitDx=0;exitDy=0;endArrow=none;endFill=0;" edge="1" parent="1" source="IfGrJ6KYX5G2Y0XuaCo3-74">
          <mxGeometry relative="1" as="geometry">
            <mxPoint x="420" y="400" as="targetPoint" />
          </mxGeometry>
        </mxCell>
        <mxCell id="IfGrJ6KYX5G2Y0XuaCo3-74" value="Дата последнего изменения" style="ellipse;whiteSpace=wrap;html=1;fillColor=none;fontSize=11;" vertex="1" parent="1">
          <mxGeometry x="440" y="670" width="120" height="40" as="geometry" />
        </mxCell>
        <mxCell id="IfGrJ6KYX5G2Y0XuaCo3-80" style="edgeStyle=orthogonalEdgeStyle;rounded=0;orthogonalLoop=1;jettySize=auto;html=1;exitX=0;exitY=0.5;exitDx=0;exitDy=0;endArrow=none;endFill=0;" edge="1" parent="1" source="IfGrJ6KYX5G2Y0XuaCo3-75">
          <mxGeometry relative="1" as="geometry">
            <mxPoint x="420" y="400" as="targetPoint" />
          </mxGeometry>
        </mxCell>
        <mxCell id="IfGrJ6KYX5G2Y0XuaCo3-75" value="Дата создания" style="ellipse;whiteSpace=wrap;html=1;fillColor=none;" vertex="1" parent="1">
          <mxGeometry x="440" y="620" width="120" height="40" as="geometry" />
        </mxCell>
        <mxCell id="IfGrJ6KYX5G2Y0XuaCo3-82" value="Индекс" style="ellipse;whiteSpace=wrap;html=1;fillColor=none;fontSize=11;" vertex="1" parent="1">
          <mxGeometry x="120" y="420" width="120" height="40" as="geometry" />
        </mxCell>
        <mxCell id="IfGrJ6KYX5G2Y0XuaCo3-83" value="PK" style="text;html=1;align=center;verticalAlign=middle;whiteSpace=wrap;rounded=0;" vertex="1" parent="1">
          <mxGeometry x="560" y="425" width="60" height="30" as="geometry" />
        </mxCell>
        <mxCell id="IfGrJ6KYX5G2Y0XuaCo3-84" value="FK" style="text;html=1;align=center;verticalAlign=middle;whiteSpace=wrap;rounded=0;" vertex="1" parent="1">
          <mxGeometry x="560" y="475" width="60" height="30" as="geometry" />
        </mxCell>
        <mxCell id="IfGrJ6KYX5G2Y0XuaCo3-85" value="Название" style="ellipse;whiteSpace=wrap;html=1;fillColor=none;fontSize=11;" vertex="1" parent="1">
          <mxGeometry x="120" y="470" width="120" height="40" as="geometry" />
        </mxCell>
        <mxCell id="IfGrJ6KYX5G2Y0XuaCo3-86" value="Электронная почта" style="ellipse;whiteSpace=wrap;html=1;fillColor=none;fontSize=11;" vertex="1" parent="1">
          <mxGeometry x="120" y="520" width="120" height="40" as="geometry" />
        </mxCell>
        <mxCell id="IfGrJ6KYX5G2Y0XuaCo3-87" value="URL" style="ellipse;whiteSpace=wrap;html=1;fillColor=none;fontSize=11;" vertex="1" parent="1">
          <mxGeometry x="120" y="570" width="120" height="40" as="geometry" />
        </mxCell>
        <mxCell id="IfGrJ6KYX5G2Y0XuaCo3-88" value="Дата последнего изменения" style="ellipse;whiteSpace=wrap;html=1;fillColor=none;fontSize=11;" vertex="1" parent="1">
          <mxGeometry x="120" y="670" width="120" height="40" as="geometry" />
        </mxCell>
        <mxCell id="IfGrJ6KYX5G2Y0XuaCo3-89" value="Дата создания" style="ellipse;whiteSpace=wrap;html=1;fillColor=none;" vertex="1" parent="1">
          <mxGeometry x="120" y="620" width="120" height="40" as="geometry" />
        </mxCell>
        <mxCell id="IfGrJ6KYX5G2Y0XuaCo3-96" value="PK" style="text;html=1;align=center;verticalAlign=middle;whiteSpace=wrap;rounded=0;" vertex="1" parent="1">
          <mxGeometry x="240" y="425" width="60" height="30" as="geometry" />
        </mxCell>
      </root>
    </mxGraphModel>
  </diagram>
</mxfile>
